<svg width="1628" height="682" viewBox="0 0 1628 682" fill="none" xmlns="http://www.w3.org/2000/svg">
<g opacity="0.78" filter="url(#filter0_dii_318_170)">
<ellipse cx="852.467" cy="169.06" rx="38.5" ry="36.5014" fill="url(#paint0_radial_318_170)"/>
</g>
<path d="M882.589 145.507C905.422 142.953 921.534 144.961 923.473 151.91C926.293 162.02 897.022 178.338 858.093 188.358C819.165 198.377 785.321 198.304 782.501 188.194C780.554 181.212 793.91 171.27 815.182 162.486" stroke="#9B934E"/>
<g clip-path="url(#clip0_318_170)">
<rect width="1628" height="682" fill="url(#paint1_radial_318_170)"/>
<path d="M1167.5 0C1208.95 41.3023 1276.73 68 1340 68C1403.27 68 1468.05 41.3024 1509.5 0" stroke="white"/>
<g filter="url(#filter1_i_318_170)">
<path d="M561 514L565.266 526.438H579.07L567.902 534.125L572.168 546.562L561 538.875L549.832 546.562L554.098 534.125L542.93 526.438H556.734L561 514Z" fill="url(#paint2_linear_318_170)"/>
</g>
<g filter="url(#filter2_i_318_170)">
<path d="M1179 145L1183.27 157.438H1197.07L1185.9 165.125L1190.17 177.562L1179 169.875L1167.83 177.562L1172.1 165.125L1160.93 157.438H1174.73L1179 145Z" fill="url(#paint3_linear_318_170)"/>
</g>
<g filter="url(#filter3_f_318_170)">
<path d="M1497.87 1058.21C1377.88 1139.15 1248.76 1181.86 1137.11 1185.59C1025.41 1189.32 931.572 1154.07 881.342 1079.6C831.111 1005.13 833.576 904.922 878.879 802.755C924.166 700.624 1012.13 596.915 1132.13 515.977C1252.13 435.038 1381.23 392.327 1492.89 388.596C1604.59 384.864 1698.43 420.118 1748.66 494.588C1798.89 569.058 1796.42 669.266 1751.12 771.434C1705.83 873.564 1617.87 977.273 1497.87 1058.21Z" stroke="white" stroke-width="5"/>
</g>
<g filter="url(#filter4_f_318_170)">
<path d="M-208.023 145.872C-288.961 25.8754 -331.672 -103.235 -335.403 -214.894C-339.134 -326.593 -303.881 -420.428 -229.411 -470.658C-154.941 -520.889 -54.7333 -518.424 47.4345 -473.121C149.565 -427.834 253.274 -339.867 334.212 -219.871C415.151 -99.8745 457.862 29.2349 461.593 140.894C465.324 252.593 430.071 346.427 355.601 396.658C281.131 446.889 180.923 444.424 78.7554 399.121C-23.3754 353.834 -127.084 265.868 -208.023 145.872Z" stroke="white" stroke-width="5"/>
</g>
<path d="M1241.5 -0.000244141C1273.53 15.0696 1312.15 22.5005 1344 22.5005C1377.12 22.5005 1409.11 14.9599 1436 0.000598431M1241.5 -0.000244141C1231.43 -4.74004 1251.26 5.3504 1241.5 -0.000244141Z" stroke="white"/>
</g>
<defs>
<filter id="filter0_dii_318_170" x="809.967" y="132.558" width="85" height="232.003" filterUnits="userSpaceOnUse" color-interpolation-filters="sRGB">
<feFlood flood-opacity="0" result="BackgroundImageFix"/>
<feColorMatrix in="SourceAlpha" type="matrix" values="0 0 0 0 0 0 0 0 0 0 0 0 0 0 0 0 0 0 127 0" result="hardAlpha"/>
<feOffset dy="155"/>
<feGaussianBlur stdDeviation="2"/>
<feComposite in2="hardAlpha" operator="out"/>
<feColorMatrix type="matrix" values="0 0 0 0 0.0699614 0 0 0 0 0.60767 0 0 0 0 0.774957 0 0 0 0.02 0"/>
<feBlend mode="normal" in2="BackgroundImageFix" result="effect1_dropShadow_318_170"/>
<feBlend mode="normal" in="SourceGraphic" in2="effect1_dropShadow_318_170" result="shape"/>
<feColorMatrix in="SourceAlpha" type="matrix" values="0 0 0 0 0 0 0 0 0 0 0 0 0 0 0 0 0 0 127 0" result="hardAlpha"/>
<feOffset dx="66" dy="194"/>
<feGaussianBlur stdDeviation="52.65"/>
<feComposite in2="hardAlpha" operator="arithmetic" k2="-1" k3="1"/>
<feColorMatrix type="matrix" values="0 0 0 0 0.806299 0 0 0 0 0.924164 0 0 0 0 0.960833 0 0 0 0.28 0"/>
<feBlend mode="normal" in2="shape" result="effect2_innerShadow_318_170"/>
<feColorMatrix in="SourceAlpha" type="matrix" values="0 0 0 0 0 0 0 0 0 0 0 0 0 0 0 0 0 0 127 0" result="hardAlpha"/>
<feOffset dy="8"/>
<feGaussianBlur stdDeviation="21.75"/>
<feComposite in2="hardAlpha" operator="arithmetic" k2="-1" k3="1"/>
<feColorMatrix type="matrix" values="0 0 0 0 1 0 0 0 0 1 0 0 0 0 1 0 0 0 1 0"/>
<feBlend mode="normal" in2="effect2_innerShadow_318_170" result="effect3_innerShadow_318_170"/>
</filter>
<filter id="filter1_i_318_170" x="542.93" y="514" width="36.1406" height="33.5625" filterUnits="userSpaceOnUse" color-interpolation-filters="sRGB">
<feFlood flood-opacity="0" result="BackgroundImageFix"/>
<feBlend mode="normal" in="SourceGraphic" in2="BackgroundImageFix" result="shape"/>
<feColorMatrix in="SourceAlpha" type="matrix" values="0 0 0 0 0 0 0 0 0 0 0 0 0 0 0 0 0 0 127 0" result="hardAlpha"/>
<feOffset dy="1"/>
<feGaussianBlur stdDeviation="2"/>
<feComposite in2="hardAlpha" operator="arithmetic" k2="-1" k3="1"/>
<feColorMatrix type="matrix" values="0 0 0 0 0 0 0 0 0 0 0 0 0 0 0 0 0 0 0.25 0"/>
<feBlend mode="normal" in2="shape" result="effect1_innerShadow_318_170"/>
</filter>
<filter id="filter2_i_318_170" x="1160.93" y="145" width="36.1406" height="33.5625" filterUnits="userSpaceOnUse" color-interpolation-filters="sRGB">
<feFlood flood-opacity="0" result="BackgroundImageFix"/>
<feBlend mode="normal" in="SourceGraphic" in2="BackgroundImageFix" result="shape"/>
<feColorMatrix in="SourceAlpha" type="matrix" values="0 0 0 0 0 0 0 0 0 0 0 0 0 0 0 0 0 0 127 0" result="hardAlpha"/>
<feOffset dy="1"/>
<feGaussianBlur stdDeviation="2"/>
<feComposite in2="hardAlpha" operator="arithmetic" k2="-1" k3="1"/>
<feColorMatrix type="matrix" values="0 0 0 0 0 0 0 0 0 0 0 0 0 0 0 0 0 0 0.25 0"/>
<feBlend mode="normal" in2="shape" result="effect1_innerShadow_318_170"/>
</filter>
<filter id="filter3_f_318_170" x="802.285" y="346.329" width="1025.43" height="881.531" filterUnits="userSpaceOnUse" color-interpolation-filters="sRGB">
<feFlood flood-opacity="0" result="BackgroundImageFix"/>
<feBlend mode="normal" in="SourceGraphic" in2="BackgroundImageFix" result="shape"/>
<feGaussianBlur stdDeviation="19.75" result="effect1_foregroundBlur_318_170"/>
</filter>
<filter id="filter4_f_318_170" x="-377.671" y="-549.715" width="881.531" height="1025.43" filterUnits="userSpaceOnUse" color-interpolation-filters="sRGB">
<feFlood flood-opacity="0" result="BackgroundImageFix"/>
<feBlend mode="normal" in="SourceGraphic" in2="BackgroundImageFix" result="shape"/>
<feGaussianBlur stdDeviation="19.75" result="effect1_foregroundBlur_318_170"/>
</filter>
<radialGradient id="paint0_radial_318_170" cx="0" cy="0" r="1" gradientUnits="userSpaceOnUse" gradientTransform="translate(870.243 147.078) rotate(106.245) scale(73.2295 89.3417)">
<stop stop-color="white"/>
<stop offset="0.352288" stop-color="#F6DF13"/>
<stop offset="0.533352" stop-color="#EAD944"/>
<stop offset="1" stop-color="#999999"/>
</radialGradient>
<radialGradient id="paint1_radial_318_170" cx="0" cy="0" r="1" gradientUnits="userSpaceOnUse" gradientTransform="translate(1044.63 1380.32) rotate(-123.82) scale(1579.28 3007.33)">
<stop offset="0.400264" stop-color="#F9F3BC"/>
<stop offset="0.999363" stop-color="#F8F3C4"/>
</radialGradient>
<linearGradient id="paint2_linear_318_170" x1="561" y1="514" x2="561" y2="550" gradientUnits="userSpaceOnUse">
<stop stop-color="#F3EB9C"/>
</linearGradient>
<linearGradient id="paint3_linear_318_170" x1="1179" y1="145" x2="1179" y2="181" gradientUnits="userSpaceOnUse">
<stop stop-color="#F3EB9C"/>
</linearGradient>
<clipPath id="clip0_318_170">
<rect width="1628" height="682" fill="white"/>
</clipPath>
</defs>
</svg>
